<?xml version="1.0" encoding="iso-8859-1"?>
<!-- Generator: Adobe Illustrator 19.0.0, SVG Export Plug-In . SVG Version: 6.00 Build 0)  -->
<svg version="1.1" id="Layer_1" xmlns="http://www.w3.org/2000/svg" xmlns:xlink="http://www.w3.org/1999/xlink" x="0px" y="0px"
	 viewBox="0 0 512 512" style="enable-background:new 0 0 512 512;" xml:space="preserve">
<g>
	<g>
		<path d="M441.139,272.974c-4-21.881-18.636-102.258-23.167-131.571c-6.011-38.887-25.324-74.547-54.382-100.414
			C333.896,14.558,295.686,0,256,0s-77.896,14.558-107.59,40.989c-29.058,25.865-48.37,61.527-54.382,100.414
			c-4.532,29.312-19.168,109.69-23.167,131.571c-24.321,21.433-38.148,51.913-38.148,84.547v78.373H165.39
			C172.863,479.061,210.647,512,256,512s83.137-32.939,90.61-76.106h132.677v-78.373
			C479.287,324.887,465.46,294.407,441.139,272.974z M125.006,146.192C135.293,79.646,190.385,31.347,256,31.347
			s120.707,48.299,130.993,114.845c3.981,25.755,15.244,88.141,20.951,119.497H104.055
			C109.763,234.333,121.025,171.946,125.006,146.192z M90.987,297.035h330.027c13.246,11.916,22.075,27.586,25.42,44.813H65.566
			C68.912,324.622,77.74,308.951,90.987,297.035z M256,480.653c-27.984,0-51.589-19.012-58.531-44.759h117.063
			C307.589,461.641,283.985,480.653,256,480.653z M447.94,404.547H64.06v-31.352H447.94V404.547z"/>
	</g>
</g>
<g>
</g>
<g>
</g>
<g>
</g>
<g>
</g>
<g>
</g>
<g>
</g>
<g>
</g>
<g>
</g>
<g>
</g>
<g>
</g>
<g>
</g>
<g>
</g>
<g>
</g>
<g>
</g>
<g>
</g>
</svg>
